<svg width="700" height="355" viewBox="0 0 700 355" fill="none" xmlns="http://www.w3.org/2000/svg">
<path opacity="0.27" d="M361.505 231.789C546.066 231.789 695.682 225.225 695.682 217.129C695.682 209.032 546.066 202.469 361.505 202.469C176.944 202.469 27.3281 209.032 27.3281 217.129C27.3281 225.225 176.944 231.789 361.505 231.789Z" fill="#BCBEC0"/>
<path d="M106.584 129.523L106.16 215.314C106.152 216.019 105.866 216.692 105.365 217.188C104.863 217.683 104.187 217.961 103.482 217.961L88.4377 217.885C87.7335 217.876 87.0614 217.59 86.5668 217.088C86.0721 216.587 85.7949 215.911 85.7949 215.207L86.2413 129.416C86.2507 128.712 86.537 128.04 87.0383 127.545C87.5396 127.051 88.2156 126.773 88.9198 126.773L103.964 126.845C104.664 126.86 105.33 127.149 105.82 127.65C106.31 128.15 106.584 128.823 106.584 129.523Z" fill="#F7941D"/>
<mask id="mask0_182_6484" style="mask-type:luminance" maskUnits="userSpaceOnUse" x="85" y="126" width="22" height="92">
<path d="M106.584 129.523L106.16 215.314C106.152 216.019 105.866 216.692 105.365 217.188C104.863 217.683 104.187 217.961 103.482 217.961L88.4377 217.885C87.7335 217.876 87.0614 217.59 86.5668 217.088C86.0721 216.587 85.7949 215.911 85.7949 215.207L86.2413 129.416C86.2507 128.712 86.537 128.04 87.0383 127.545C87.5396 127.051 88.2156 126.773 88.9198 126.773L103.964 126.845C104.664 126.86 105.33 127.149 105.82 127.65C106.31 128.15 106.584 128.823 106.584 129.523Z" fill="white"/>
</mask>
<g mask="url(#mask0_182_6484)">
<path d="M96.4221 123.79L95.9473 220.945L109.781 221.013L110.256 123.858L96.4221 123.79Z" fill="#F26522"/>
<path d="M89.2809 129.33L88.8345 215.344C88.8286 216.395 88.406 217.401 87.6595 218.141C86.913 218.881 85.9035 219.294 84.8525 219.29C83.8008 219.285 82.7944 218.861 82.0544 218.114C81.3145 217.366 80.9015 216.356 80.9063 215.304L81.3527 129.29C81.355 128.769 81.4599 128.254 81.6613 127.774C81.8626 127.294 82.1566 126.859 82.5264 126.492C82.8961 126.126 83.3345 125.836 83.8163 125.639C84.2981 125.442 84.8141 125.341 85.3347 125.344C86.3864 125.35 87.3928 125.773 88.1328 126.52C88.8727 127.268 89.2857 128.278 89.2809 129.33Z" fill="#F9AB5D"/>
</g>
<path d="M85.8714 198.817L85.8301 207.281L106.191 207.381L106.232 198.917L85.8714 198.817Z" fill="#434D6A"/>
<path d="M96.0531 198.864L96.0117 207.328L106.19 207.378L106.231 198.914L96.0531 198.864Z" fill="#2A2D4B"/>
<path d="M85.8695 198.817L85.8281 207.281L88.886 207.296L88.9274 198.832L85.8695 198.817Z" fill="#52607C"/>
<path d="M86.1781 137.333L86.1367 145.797L106.497 145.896L106.539 137.433L86.1781 137.333Z" fill="#434D6A"/>
<path d="M96.3539 137.388L96.3125 145.852L106.49 145.901L106.532 137.437L96.3539 137.388Z" fill="#2A2D4B"/>
<path d="M86.1761 137.333L86.1348 145.797L89.1926 145.812L89.234 137.348L86.1761 137.333Z" fill="#52607C"/>
<path d="M127.004 129.629L126.58 215.42C126.571 216.124 126.284 216.796 125.783 217.291C125.282 217.786 124.606 218.063 123.902 218.063L108.858 217.991C108.153 217.982 107.481 217.696 106.987 217.194C106.492 216.693 106.215 216.017 106.215 215.313L106.639 129.522C106.647 128.817 106.933 128.144 107.434 127.648C107.936 127.153 108.612 126.875 109.317 126.875L124.361 126.951C125.066 126.96 125.738 127.247 126.232 127.748C126.727 128.249 127.004 128.925 127.004 129.629Z" fill="#F7941D"/>
<mask id="mask1_182_6484" style="mask-type:luminance" maskUnits="userSpaceOnUse" x="106" y="126" width="22" height="93">
<path d="M127.002 129.629L126.578 215.42C126.569 216.124 126.282 216.796 125.781 217.291C125.28 217.786 124.604 218.063 123.9 218.063L108.856 217.991C108.151 217.982 107.479 217.696 106.985 217.194C106.49 216.693 106.213 216.017 106.213 215.313L106.637 129.522C106.645 128.817 106.931 128.144 107.432 127.648C107.934 127.153 108.61 126.875 109.315 126.875L124.359 126.951C125.064 126.96 125.736 127.247 126.23 127.748C126.725 128.249 127.002 128.925 127.002 129.629Z" fill="white"/>
</mask>
<g mask="url(#mask1_182_6484)">
<path d="M115.998 123.078V220.234H129.832V123.078H115.998Z" fill="#F26522"/>
<path d="M109.699 129.426L109.252 215.445C109.25 215.965 109.145 216.48 108.944 216.96C108.742 217.439 108.448 217.875 108.079 218.241C107.709 218.607 107.27 218.897 106.789 219.093C106.307 219.29 105.791 219.389 105.271 219.386C104.75 219.384 104.235 219.279 103.755 219.078C103.275 218.877 102.839 218.583 102.473 218.213C102.106 217.843 101.816 217.405 101.619 216.923C101.422 216.441 101.322 215.925 101.324 215.405L101.78 129.399C101.781 128.879 101.886 128.363 102.087 127.883C102.288 127.403 102.582 126.967 102.952 126.6C103.322 126.234 103.76 125.944 104.243 125.747C104.725 125.55 105.241 125.45 105.762 125.453C106.81 125.459 107.814 125.881 108.552 126.626C109.29 127.37 109.702 128.378 109.699 129.426Z" fill="#F9AB5D"/>
</g>
<path d="M106.291 198.919L106.25 207.383L126.61 207.482L126.652 199.019L106.291 198.919Z" fill="#434D6A"/>
<path d="M116.473 198.966L116.432 207.43L126.61 207.479L126.651 199.016L116.473 198.966Z" fill="#2A2D4B"/>
<path d="M105.744 197.935V206.398H108.802V197.935H105.744Z" fill="#52607C"/>
<path d="M106.594 137.442L106.553 145.906L126.913 146.006L126.955 137.542L106.594 137.442Z" fill="#434D6A"/>
<path d="M116.774 137.489L116.732 145.953L126.91 146.003L126.952 137.539L116.774 137.489Z" fill="#2A2D4B"/>
<path d="M106.596 137.435L106.555 145.898L109.613 145.913L109.654 137.45L106.596 137.435Z" fill="#52607C"/>
<path d="M147.234 129.731L146.788 215.522C146.779 216.227 146.494 216.9 145.992 217.396C145.491 217.891 144.814 218.169 144.109 218.169L129.065 218.093C128.36 218.085 127.687 217.799 127.191 217.298C126.696 216.796 126.418 216.12 126.418 215.415L126.864 129.619C126.874 128.915 127.16 128.243 127.661 127.748C128.163 127.254 128.839 126.976 129.543 126.977L144.587 127.052C145.292 127.061 145.965 127.347 146.461 127.848C146.956 128.349 147.234 129.026 147.234 129.731Z" fill="#F7941D"/>
<mask id="mask2_182_6484" style="mask-type:luminance" maskUnits="userSpaceOnUse" x="126" y="126" width="22" height="93">
<path d="M147.234 129.731L146.788 215.522C146.779 216.227 146.494 216.9 145.992 217.396C145.491 217.891 144.814 218.169 144.109 218.169L129.065 218.093C128.36 218.085 127.687 217.799 127.191 217.298C126.696 216.796 126.418 216.12 126.418 215.415L126.864 129.619C126.874 128.915 127.16 128.243 127.661 127.748C128.163 127.254 128.839 126.976 129.543 126.977L144.587 127.052C145.292 127.061 145.965 127.347 146.461 127.848C146.956 128.349 147.234 129.026 147.234 129.731Z" fill="white"/>
</mask>
<g mask="url(#mask2_182_6484)">
<path d="M137.065 123.993L136.59 221.148L150.424 221.216L150.899 124.061L137.065 123.993Z" fill="#F26522"/>
<path d="M129.931 129.536L129.503 215.563C129.497 216.615 129.073 217.621 128.326 218.361C127.578 219.101 126.568 219.514 125.516 219.509C124.996 219.506 124.481 219.401 124.001 219.199C123.521 218.997 123.086 218.703 122.72 218.332C122.354 217.962 122.064 217.524 121.867 217.042C121.671 216.559 121.571 216.043 121.574 215.523L122.021 129.509C122.027 128.457 122.45 127.451 123.197 126.711C123.945 125.971 124.955 125.558 126.007 125.563C127.053 125.574 128.051 125.998 128.786 126.742C129.521 127.486 129.932 128.49 129.931 129.536Z" fill="#F9AB5D"/>
</g>
<path d="M126.516 199.021L126.475 207.484L146.835 207.584L146.876 199.12L126.516 199.021Z" fill="#434D6A"/>
<path d="M136.696 199.067L136.654 207.531L146.832 207.581L146.874 199.117L136.696 199.067Z" fill="#2A2D4B"/>
<path d="M126.518 199.021L126.477 207.484L129.534 207.499L129.576 199.036L126.518 199.021Z" fill="#52607C"/>
<path d="M126.133 136.895V145.359H146.494V136.895H126.133Z" fill="#434D6A"/>
<path d="M136.289 136.919V145.383H146.467V136.919H136.289Z" fill="#2A2D4B"/>
<path d="M126.823 137.536L126.781 146L129.839 146.015L129.88 137.551L126.823 137.536Z" fill="#52607C"/>
<path d="M159.202 174.124H61.6035V140.684L162.233 5.42188H215.445V131.564H245.546V174.124H215.445V217.903H159.197L159.202 174.124ZM167.402 131.564V70.7627L122.721 131.564H167.402Z" fill="#D1D3D4"/>
<path d="M300.571 209.237C285.777 200.422 274.377 187.704 266.372 171.083C258.366 154.462 254.363 134.701 254.363 111.8C254.363 88.9049 258.315 69.1439 266.22 52.5167C274.124 35.8894 285.423 23.1266 300.116 14.2282C314.808 5.30002 332.189 0.835938 352.256 0.835938C372.324 0.835938 389.702 5.30002 404.392 14.2282C419.088 23.1564 430.388 35.9237 438.293 52.5301C446.197 69.1365 450.149 88.8975 450.149 111.813C450.149 134.729 446.146 154.49 438.141 171.096C430.135 187.703 418.734 200.421 403.937 209.251C389.143 218.069 371.916 222.478 352.256 222.478C332.596 222.478 315.368 218.064 300.571 209.237ZM383.871 156.186C391.371 145.651 395.12 131.059 395.12 112.411C395.12 93.561 391.421 78.7149 384.023 67.8731C376.624 57.0313 366.035 51.609 352.256 51.606C338.471 51.606 327.881 57.0284 320.485 67.8731C313.09 78.7179 309.391 93.5639 309.388 112.411C309.388 131.056 313.137 145.648 320.637 156.186C328.137 166.724 338.676 171.995 352.256 171.998C365.833 171.998 376.371 166.727 383.871 156.186Z" fill="#D1D3D4"/>
<path d="M556.554 174.124H458.965V140.684L559.594 5.42188H612.797V131.564H642.894V174.124H612.797V217.903H556.55L556.554 174.124ZM564.764 131.564V70.7627L520.065 131.564H564.764Z" fill="#D1D3D4"/>
<path d="M417.776 182.672L333.338 183.614C332.644 183.621 331.975 183.353 331.479 182.867C330.982 182.382 330.699 181.719 330.691 181.025L330.526 166.218C330.522 165.874 330.586 165.533 330.714 165.215C330.843 164.896 331.032 164.605 331.273 164.36C331.513 164.115 331.8 163.919 332.116 163.784C332.432 163.65 332.771 163.578 333.115 163.575L417.553 162.633C417.897 162.629 418.238 162.693 418.557 162.821C418.876 162.949 419.166 163.138 419.412 163.379C419.657 163.619 419.853 163.906 419.987 164.222C420.122 164.539 420.193 164.878 420.196 165.222L420.361 180.025C420.365 180.369 420.301 180.71 420.174 181.029C420.046 181.348 419.857 181.638 419.617 181.884C419.377 182.13 419.091 182.326 418.775 182.461C418.459 182.596 418.12 182.668 417.776 182.672Z" fill="#F7941D"/>
<mask id="mask3_182_6484" style="mask-type:luminance" maskUnits="userSpaceOnUse" x="330" y="162" width="91" height="22">
<path d="M417.776 182.672L333.338 183.614C332.644 183.621 331.975 183.353 331.479 182.867C330.982 182.382 330.699 181.719 330.691 181.025L330.526 166.218C330.522 165.874 330.586 165.533 330.714 165.215C330.843 164.896 331.032 164.605 331.273 164.36C331.513 164.115 331.8 163.919 332.116 163.784C332.432 163.65 332.771 163.578 333.115 163.575L417.553 162.633C417.897 162.629 418.238 162.693 418.557 162.821C418.876 162.949 419.166 163.138 419.412 163.379C419.657 163.619 419.853 163.906 419.987 164.222C420.122 164.539 420.193 164.878 420.196 165.222L420.361 180.025C420.365 180.369 420.301 180.71 420.174 181.029C420.046 181.348 419.857 181.638 419.617 181.884C419.377 182.13 419.091 182.326 418.775 182.461C418.459 182.596 418.12 182.668 417.776 182.672Z" fill="white"/>
</mask>
<g mask="url(#mask3_182_6484)">
<path d="M423.258 172.58L327.635 173.648L327.787 187.263L423.411 186.195L423.258 172.58Z" fill="#F26522"/>
<path d="M417.696 165.644L333.021 166.586C331.986 166.596 330.988 166.196 330.248 165.472C329.509 164.748 329.086 163.76 329.074 162.724C329.069 162.212 329.164 161.704 329.354 161.228C329.545 160.753 329.828 160.32 330.186 159.954C330.544 159.588 330.971 159.296 331.442 159.095C331.913 158.894 332.419 158.788 332.931 158.783L417.588 157.836C418.624 157.825 419.621 158.226 420.361 158.95C421.101 159.674 421.523 160.662 421.535 161.698C421.547 162.729 421.149 163.724 420.43 164.463C419.71 165.203 418.727 165.627 417.696 165.644Z" fill="#F9AB5D"/>
</g>
<path d="M349.248 163.383L340.914 163.477L341.138 183.515L349.472 183.421L349.248 163.383Z" fill="#434D6A"/>
<path d="M349.359 173.399L341.025 173.492L341.137 183.513L349.471 183.42L349.359 173.399Z" fill="#2A2D4B"/>
<path d="M349.252 163.383L340.918 163.477L340.952 166.485L349.285 166.392L349.252 163.383Z" fill="#52607C"/>
<path d="M409.764 162.712L401.43 162.805L401.654 182.843L409.987 182.75L409.764 162.712Z" fill="#434D6A"/>
<path d="M409.877 172.727L401.543 172.82L401.655 182.842L409.989 182.748L409.877 172.727Z" fill="#2A2D4B"/>
<path d="M409.764 162.712L401.43 162.805L401.463 165.813L409.797 165.72L409.764 162.712Z" fill="#52607C"/>
<path d="M417.782 182.723L333.34 183.666C331.896 183.682 330.738 184.866 330.754 186.311L330.919 201.118C330.935 202.562 332.12 203.72 333.564 203.704L418.006 202.761C419.451 202.745 420.609 201.561 420.593 200.116L420.427 185.309C420.411 183.865 419.227 182.707 417.782 182.723Z" fill="#F7941D"/>
<mask id="mask4_182_6484" style="mask-type:luminance" maskUnits="userSpaceOnUse" x="330" y="182" width="91" height="22">
<path d="M417.782 182.715L333.34 183.658C331.896 183.674 330.738 184.859 330.754 186.303L330.919 201.11C330.935 202.554 332.12 203.712 333.564 203.696L418.006 202.753C419.451 202.737 420.609 201.553 420.593 200.108L420.427 185.302C420.411 183.857 419.227 182.699 417.782 182.715Z" fill="white"/>
</mask>
<g mask="url(#mask4_182_6484)">
<path d="M423.477 192.674L327.854 193.742L328.006 207.357L423.629 206.289L423.477 192.674Z" fill="#F26522"/>
<path d="M417.918 185.741L333.261 186.683C332.749 186.689 332.24 186.594 331.764 186.403C331.289 186.212 330.855 185.93 330.489 185.572C330.123 185.214 329.83 184.787 329.629 184.316C329.427 183.845 329.321 183.338 329.315 182.826C329.308 182.313 329.403 181.805 329.593 181.329C329.784 180.853 330.066 180.419 330.425 180.053C330.783 179.686 331.21 179.394 331.681 179.192C332.153 178.991 332.659 178.885 333.172 178.88L417.838 177.938C418.35 177.932 418.858 178.027 419.333 178.218C419.809 178.408 420.242 178.691 420.608 179.049C420.974 179.407 421.266 179.834 421.467 180.305C421.668 180.776 421.774 181.283 421.779 181.795C421.785 182.307 421.69 182.816 421.499 183.292C421.308 183.768 421.025 184.202 420.667 184.568C420.308 184.935 419.881 185.227 419.409 185.428C418.937 185.629 418.431 185.736 417.918 185.741Z" fill="#F9AB5D"/>
</g>
<path d="M349.473 183.485L341.139 183.578L341.363 203.616L349.696 203.523L349.473 183.485Z" fill="#434D6A"/>
<path d="M349.584 193.501L341.25 193.594L341.362 203.615L349.696 203.522L349.584 193.501Z" fill="#2A2D4B"/>
<path d="M349.473 183.485L341.139 183.578L341.172 186.587L349.506 186.494L349.473 183.485Z" fill="#52607C"/>
<path d="M409.99 182.805L401.656 182.898L401.88 202.936L410.214 202.843L409.99 182.805Z" fill="#434D6A"/>
<path d="M410.102 192.821L401.768 192.914L401.88 202.935L410.213 202.842L410.102 192.821Z" fill="#2A2D4B"/>
<path d="M409.99 182.805L401.656 182.898L401.69 185.907L410.024 185.814L409.99 182.805Z" fill="#52607C"/>
<path d="M418.009 202.629L333.567 203.572C332.122 203.588 330.964 204.773 330.98 206.217L331.146 221.024C331.162 222.468 332.346 223.627 333.791 223.61L418.233 222.667C419.677 222.651 420.835 221.467 420.819 220.022L420.654 205.216C420.638 203.771 419.453 202.613 418.009 202.629Z" fill="#F7941D"/>
<mask id="mask5_182_6484" style="mask-type:luminance" maskUnits="userSpaceOnUse" x="330" y="202" width="91" height="22">
<path d="M418.007 202.621L333.565 203.565C332.12 203.581 330.962 204.765 330.978 206.21L331.144 221.016C331.16 222.461 332.344 223.619 333.789 223.603L418.231 222.659C419.675 222.643 420.833 221.459 420.817 220.014L420.652 205.208C420.636 203.763 419.452 202.605 418.007 202.621Z" fill="white"/>
</mask>
<g mask="url(#mask5_182_6484)">
<path d="M423.698 212.58L328.074 213.648L328.226 227.263L423.85 226.195L423.698 212.58Z" fill="#F26522"/>
<path d="M418.138 205.647L333.464 206.589C332.951 206.595 332.443 206.499 331.967 206.308C331.492 206.116 331.059 205.834 330.693 205.475C330.327 205.116 330.035 204.689 329.834 204.218C329.633 203.746 329.527 203.24 329.522 202.728C329.516 202.216 329.611 201.707 329.802 201.232C329.992 200.757 330.275 200.323 330.633 199.957C330.991 199.591 331.418 199.299 331.889 199.098C332.36 198.897 332.867 198.791 333.379 198.786L418.036 197.844C418.548 197.838 419.057 197.932 419.533 198.123C420.009 198.313 420.442 198.596 420.809 198.954C421.176 199.312 421.468 199.739 421.669 200.211C421.87 200.682 421.977 201.188 421.982 201.701C421.993 202.733 421.594 203.728 420.874 204.467C420.154 205.207 419.17 205.631 418.138 205.647Z" fill="#F9AB5D"/>
</g>
<path d="M349.699 203.391L341.365 203.484L341.589 223.522L349.923 223.429L349.699 203.391Z" fill="#434D6A"/>
<path d="M349.807 213.407L341.473 213.5L341.585 223.521L349.919 223.428L349.807 213.407Z" fill="#2A2D4B"/>
<path d="M349.695 203.391L341.361 203.484L341.395 206.493L349.729 206.4L349.695 203.391Z" fill="#52607C"/>
<path d="M410.211 202.719L401.877 202.812L402.101 222.851L410.435 222.757L410.211 202.719Z" fill="#434D6A"/>
<path d="M410.324 212.735L401.99 212.828L402.102 222.849L410.436 222.756L410.324 212.735Z" fill="#2A2D4B"/>
<path d="M410.211 202.712L401.877 202.805L401.911 205.813L410.244 205.72L410.211 202.712Z" fill="#52607C"/>
<path d="M591.437 130.319L592.375 214.762C592.379 215.105 592.315 215.446 592.188 215.765C592.06 216.083 591.871 216.374 591.63 216.619C591.39 216.865 591.104 217.06 590.789 217.195C590.473 217.33 590.133 217.401 589.79 217.405L574.983 217.57C574.639 217.574 574.298 217.51 573.979 217.383C573.66 217.255 573.37 217.066 573.124 216.826C572.878 216.586 572.682 216.3 572.547 215.984C572.411 215.668 572.34 215.329 572.336 214.985L571.403 130.542C571.398 130.199 571.462 129.858 571.59 129.54C571.717 129.221 571.907 128.931 572.147 128.685C572.387 128.44 572.673 128.244 572.989 128.109C573.305 127.974 573.644 127.903 573.987 127.9L588.795 127.735C589.488 127.727 590.155 127.996 590.651 128.48C591.146 128.965 591.429 129.626 591.437 130.319Z" fill="#F7941D"/>
<mask id="mask6_182_6484" style="mask-type:luminance" maskUnits="userSpaceOnUse" x="571" y="127" width="22" height="91">
<path d="M591.437 130.319L592.375 214.762C592.379 215.105 592.315 215.446 592.188 215.765C592.06 216.083 591.871 216.374 591.63 216.619C591.39 216.865 591.104 217.06 590.789 217.195C590.473 217.33 590.133 217.401 589.79 217.405L574.983 217.57C574.639 217.574 574.298 217.51 573.979 217.383C573.66 217.255 573.37 217.066 573.124 216.826C572.878 216.586 572.682 216.3 572.547 215.984C572.411 215.668 572.34 215.329 572.336 214.985L571.403 130.542C571.398 130.199 571.462 129.858 571.59 129.54C571.717 129.221 571.907 128.931 572.147 128.685C572.387 128.44 572.673 128.244 572.989 128.109C573.305 127.974 573.644 127.903 573.987 127.9L588.795 127.735C589.488 127.727 590.155 127.996 590.651 128.48C591.146 128.965 591.429 129.626 591.437 130.319Z" fill="white"/>
</mask>
<g mask="url(#mask6_182_6484)">
<path d="M581.332 124.837L582.4 220.461L596.015 220.309L594.947 124.685L581.332 124.837Z" fill="#F26522"/>
<path d="M574.403 130.396L575.345 215.058C575.351 215.57 575.256 216.078 575.065 216.554C574.874 217.029 574.592 217.462 574.234 217.828C573.875 218.194 573.449 218.486 572.977 218.687C572.506 218.888 572 218.994 571.488 219C570.976 219.005 570.467 218.91 569.992 218.72C569.516 218.529 569.083 218.247 568.716 217.888C568.35 217.53 568.057 217.103 567.856 216.632C567.654 216.161 567.548 215.655 567.542 215.143L566.6 130.486C566.594 129.973 566.689 129.465 566.88 128.989C567.07 128.513 567.353 128.08 567.711 127.714C568.069 127.347 568.496 127.055 568.967 126.853C569.438 126.652 569.944 126.545 570.457 126.539C570.969 126.533 571.478 126.628 571.954 126.818C572.43 127.008 572.864 127.291 573.23 127.649C573.597 128.007 573.889 128.435 574.09 128.906C574.292 129.377 574.398 129.884 574.403 130.396Z" fill="#F9AB5D"/>
</g>
<path d="M572.135 198.846L572.229 207.18L592.267 206.956L592.173 198.622L572.135 198.846Z" fill="#434D6A"/>
<path d="M582.159 198.736L582.252 207.07L592.273 206.958L592.18 198.624L582.159 198.736Z" fill="#2A2D4B"/>
<path d="M572.135 198.846L572.229 207.18L575.237 207.146L575.144 198.812L572.135 198.846Z" fill="#52607C"/>
<path d="M571.46 138.338L571.553 146.672L591.591 146.448L591.498 138.114L571.46 138.338Z" fill="#434D6A"/>
<path d="M581.483 138.221L581.576 146.555L591.597 146.443L591.504 138.109L581.483 138.221Z" fill="#2A2D4B"/>
<path d="M571.464 138.338L571.557 146.672L574.565 146.638L574.472 138.304L571.464 138.338Z" fill="#52607C"/>
<path d="M611.534 130.101L612.472 214.539C612.476 214.882 612.412 215.223 612.285 215.542C612.157 215.861 611.968 216.152 611.728 216.398C611.488 216.644 611.201 216.84 610.886 216.975C610.57 217.11 610.23 217.182 609.887 217.186L595.062 217.347C594.718 217.351 594.376 217.287 594.057 217.159C593.738 217.031 593.447 216.842 593.201 216.601C592.955 216.361 592.759 216.074 592.624 215.758C592.489 215.441 592.418 215.101 592.414 214.758L591.49 130.324C591.486 129.98 591.55 129.64 591.678 129.321C591.805 129.002 591.995 128.712 592.235 128.466C592.475 128.221 592.761 128.025 593.077 127.89C593.393 127.756 593.732 127.685 594.075 127.681L608.882 127.516C609.226 127.511 609.568 127.574 609.887 127.702C610.207 127.829 610.498 128.018 610.744 128.258C610.991 128.498 611.187 128.785 611.323 129.101C611.458 129.417 611.53 129.757 611.534 130.101Z" fill="#F7941D"/>
<mask id="mask7_182_6484" style="mask-type:luminance" maskUnits="userSpaceOnUse" x="591" y="127" width="22" height="91">
<path d="M611.534 130.101L612.472 214.539C612.476 214.882 612.412 215.223 612.285 215.542C612.157 215.861 611.968 216.152 611.728 216.398C611.488 216.644 611.201 216.84 610.886 216.975C610.57 217.11 610.23 217.182 609.887 217.186L595.062 217.347C594.718 217.351 594.376 217.287 594.057 217.159C593.738 217.031 593.447 216.842 593.201 216.601C592.955 216.361 592.759 216.074 592.624 215.758C592.489 215.441 592.418 215.101 592.414 214.758L591.49 130.324C591.486 129.98 591.55 129.64 591.678 129.321C591.805 129.002 591.995 128.712 592.235 128.466C592.475 128.221 592.761 128.025 593.077 127.89C593.393 127.756 593.732 127.685 594.075 127.681L608.882 127.516C609.226 127.511 609.568 127.574 609.887 127.702C610.207 127.829 610.498 128.018 610.744 128.258C610.991 128.498 611.187 128.785 611.323 129.101C611.458 129.417 611.53 129.757 611.534 130.101Z" fill="white"/>
</mask>
<g mask="url(#mask7_182_6484)">
<path d="M601.43 124.619L602.498 220.242L616.113 220.09L615.044 124.466L601.43 124.619Z" fill="#F26522"/>
<path d="M594.499 130.178L595.445 214.834C595.456 215.87 595.055 216.867 594.331 217.607C593.607 218.347 592.619 218.769 591.584 218.781C591.071 218.787 590.563 218.692 590.087 218.501C589.612 218.31 589.178 218.028 588.812 217.67C588.445 217.311 588.153 216.885 587.951 216.413C587.75 215.942 587.643 215.436 587.637 214.924L586.696 130.267C586.685 129.232 587.085 128.234 587.81 127.495C588.534 126.755 589.522 126.332 590.557 126.321C591.069 126.315 591.577 126.41 592.053 126.601C592.528 126.791 592.961 127.074 593.327 127.432C593.693 127.79 593.985 128.217 594.186 128.688C594.387 129.159 594.493 129.665 594.499 130.178Z" fill="#F9AB5D"/>
</g>
<path d="M592.231 198.627L592.324 206.961L612.362 206.737L612.269 198.403L592.231 198.627Z" fill="#434D6A"/>
<path d="M602.251 198.518L602.344 206.852L612.365 206.74L612.272 198.406L602.251 198.518Z" fill="#2A2D4B"/>
<path d="M592.227 198.627L592.32 206.961L595.329 206.927L595.236 198.593L592.227 198.627Z" fill="#52607C"/>
<path d="M591.559 138.111L591.652 146.445L611.69 146.221L611.597 137.888L591.559 138.111Z" fill="#434D6A"/>
<path d="M601.579 138.002L601.672 146.336L611.693 146.224L611.6 137.89L601.579 138.002Z" fill="#2A2D4B"/>
<path d="M591.561 138.111L591.654 146.445L594.663 146.412L594.57 138.078L591.561 138.111Z" fill="#52607C"/>
<path d="M631.446 129.878L632.383 214.317C632.387 214.66 632.324 215.001 632.196 215.319C632.068 215.638 631.879 215.929 631.639 216.174C631.399 216.419 631.113 216.615 630.797 216.75C630.481 216.885 630.142 216.956 629.798 216.959L614.991 217.125C614.648 217.129 614.307 217.065 613.988 216.937C613.669 216.81 613.378 216.621 613.132 216.38C612.886 216.14 612.69 215.854 612.555 215.539C612.42 215.223 612.348 214.883 612.344 214.54L611.406 130.097C611.399 129.404 611.667 128.737 612.152 128.241C612.637 127.746 613.298 127.463 613.991 127.454L628.798 127.289C629.142 127.285 629.484 127.349 629.803 127.477C630.122 127.605 630.413 127.794 630.659 128.035C630.905 128.275 631.101 128.562 631.236 128.878C631.371 129.195 631.442 129.535 631.446 129.878Z" fill="#F7941D"/>
<mask id="mask8_182_6484" style="mask-type:luminance" maskUnits="userSpaceOnUse" x="611" y="127" width="22" height="91">
<path d="M631.446 129.878L632.383 214.317C632.387 214.66 632.324 215.001 632.196 215.319C632.068 215.638 631.879 215.929 631.639 216.174C631.399 216.419 631.113 216.615 630.797 216.75C630.481 216.885 630.142 216.956 629.798 216.959L614.991 217.125C614.648 217.129 614.307 217.065 613.988 216.937C613.669 216.81 613.378 216.621 613.132 216.38C612.886 216.14 612.69 215.854 612.555 215.539C612.42 215.223 612.348 214.883 612.344 214.54L611.406 130.097C611.399 129.404 611.667 128.737 612.152 128.241C612.637 127.746 613.298 127.463 613.991 127.454L628.798 127.289C629.142 127.285 629.484 127.349 629.803 127.477C630.122 127.605 630.413 127.794 630.659 128.035C630.905 128.275 631.101 128.562 631.236 128.878C631.371 129.195 631.442 129.535 631.446 129.878Z" fill="white"/>
</mask>
<g mask="url(#mask8_182_6484)">
<path d="M621.338 124.392L622.406 220.016L636.021 219.864L634.953 124.24L621.338 124.392Z" fill="#F26522"/>
<path d="M614.411 129.951L615.353 214.612C615.359 215.125 615.264 215.633 615.073 216.109C614.882 216.584 614.6 217.018 614.242 217.384C613.883 217.751 613.457 218.043 612.986 218.245C612.514 218.446 612.008 218.553 611.496 218.559C610.461 218.569 609.463 218.169 608.724 217.445C607.984 216.721 607.561 215.732 607.55 214.697L606.608 130.04C606.597 129.005 606.998 128.008 607.722 127.268C608.446 126.528 609.434 126.106 610.469 126.094C611.503 126.083 612.499 126.483 613.238 127.207C613.977 127.93 614.399 128.917 614.411 129.951Z" fill="#F9AB5D"/>
</g>
<path d="M612.141 198.4L612.234 206.734L632.272 206.511L632.179 198.177L612.141 198.4Z" fill="#434D6A"/>
<path d="M622.157 198.291L622.25 206.625L632.271 206.513L632.178 198.179L622.157 198.291Z" fill="#2A2D4B"/>
<path d="M612.147 198.408L612.24 206.742L615.249 206.709L615.156 198.375L612.147 198.408Z" fill="#52607C"/>
<path d="M611.465 137.885L611.559 146.219L631.597 145.995L631.504 137.661L611.465 137.885Z" fill="#434D6A"/>
<path d="M621.485 137.775L621.578 146.109L631.599 145.997L631.506 137.663L621.485 137.775Z" fill="#2A2D4B"/>
<path d="M611.467 137.885L611.561 146.219L614.569 146.185L614.476 137.851L611.467 137.885Z" fill="#52607C"/>
<path d="M36.8953 331.758C28.0808 331.758 19.6273 328.256 13.3945 322.023C7.16168 315.79 3.66014 307.337 3.66014 298.522C3.66014 289.708 7.16168 281.254 13.3945 275.022C19.6273 268.789 28.0808 265.287 36.8953 265.287H428.195C434.231 265.28 440.017 262.879 444.286 258.611C448.554 254.343 450.955 248.556 450.962 242.52V240.288H484.679C490.557 240.283 496.193 237.945 500.35 233.789C504.506 229.633 506.845 223.998 506.852 218.12V126.548C506.858 120.811 509.139 115.31 513.196 111.253C517.252 107.196 522.752 104.913 528.489 104.906H592.196C594.217 104.908 596.153 105.712 597.582 107.141C599.011 108.569 599.814 110.506 599.817 112.526V112.883H590.442C587.774 112.886 585.216 113.947 583.33 115.833C581.443 117.72 580.382 120.278 580.38 122.945V127.811H584.041V122.945C584.042 121.248 584.716 119.62 585.917 118.42C587.117 117.22 588.745 116.545 590.442 116.544H599.817V127.811H603.477V116.544H613.329C615.026 116.546 616.652 117.222 617.852 118.422C619.051 119.622 619.725 121.249 619.726 122.945V127.374H623.387V122.945C623.383 120.279 622.323 117.723 620.437 115.838C618.552 113.952 615.996 112.891 613.329 112.888H603.477V112.531C603.474 109.54 602.284 106.673 600.169 104.558C598.054 102.443 595.187 101.254 592.196 101.25H528.489C521.781 101.257 515.35 103.925 510.607 108.669C505.864 113.413 503.197 119.844 503.191 126.552V218.129C503.185 223.036 501.233 227.741 497.762 231.211C494.292 234.681 489.586 236.632 484.679 236.637H450.962V209.312C450.956 205.122 449.521 201.059 446.895 197.794C444.268 194.529 440.607 192.257 436.516 191.353V180.675C436.512 177.89 435.404 175.221 433.435 173.252C431.466 171.282 428.797 170.175 426.012 170.171H420.28V173.832H426.012C427.826 173.833 429.566 174.554 430.85 175.837C432.133 177.12 432.854 178.86 432.855 180.675V190.907H432.57H420.517V194.581H432.57H432.855V205.638C432.853 207.026 432.3 208.357 431.319 209.338C430.337 210.32 429.007 210.872 427.619 210.875H420.726V214.531H427.619C429.975 214.522 432.233 213.583 433.899 211.917C435.566 210.252 436.506 207.994 436.516 205.638V195.098C439.621 195.962 442.357 197.819 444.305 200.387C446.253 202.954 447.306 206.089 447.301 209.312V242.543C447.295 247.608 445.28 252.465 441.698 256.046C438.117 259.628 433.26 261.643 428.195 261.649H186.295V140.346C186.289 134.206 183.847 128.319 179.505 123.977C175.163 119.635 169.276 117.193 163.135 117.187H144.636C142.02 117.189 139.512 118.229 137.663 120.079C135.813 121.929 134.773 124.437 134.77 127.052H138.426C138.429 125.406 139.084 123.828 140.248 122.664C141.412 121.5 142.99 120.845 144.636 120.843H163.153C168.323 120.849 173.28 122.906 176.936 126.562C180.592 130.219 182.647 135.176 182.652 140.346V261.627H36.8953C32.0162 261.573 27.1749 262.488 22.6518 264.318C18.1286 266.148 14.0133 268.857 10.5441 272.288C7.07497 275.719 4.32086 279.804 2.44122 284.307C0.561583 288.81 -0.40625 293.641 -0.40625 298.52C-0.40625 303.4 0.561583 308.23 2.44122 312.733C4.32086 317.236 7.07497 321.321 10.5441 324.752C14.0133 328.184 18.1286 330.893 22.6518 332.723C27.1749 334.553 32.0162 335.467 36.8953 335.414H685.576V331.758H36.8953Z" fill="#00386B"/>
<path d="M675.011 276.594H671.221V298.392H675.011V276.594Z" fill="#434D6A"/>
<path d="M681.858 298.391H664.377V301.703H681.858V298.391Z" fill="#2A2D4B"/>
<path d="M681.63 273.281H664.148V276.594H681.63V273.281Z" fill="#2A2D4B"/>
<path d="M698.338 305.028H647.916C647.698 305.028 647.482 304.985 647.281 304.901C647.08 304.818 646.896 304.696 646.742 304.541C646.588 304.387 646.466 304.204 646.382 304.003C646.299 303.801 646.256 303.585 646.256 303.367C646.256 303.149 646.299 302.934 646.382 302.732C646.466 302.531 646.588 302.348 646.742 302.194C646.897 302.041 647.08 301.919 647.281 301.836C647.483 301.753 647.699 301.71 647.916 301.711H698.338C698.556 301.71 698.772 301.753 698.973 301.836C699.175 301.919 699.358 302.041 699.512 302.194C699.667 302.348 699.789 302.531 699.872 302.732C699.956 302.934 699.999 303.149 699.999 303.367C699.999 303.585 699.956 303.801 699.873 304.003C699.789 304.204 699.667 304.387 699.513 304.541C699.358 304.696 699.175 304.818 698.974 304.901C698.772 304.985 698.556 305.028 698.338 305.028Z" fill="#DA927E"/>
<path d="M698.338 354.918H647.916C647.698 354.918 647.482 354.875 647.281 354.792C647.08 354.709 646.896 354.586 646.742 354.432C646.588 354.278 646.466 354.095 646.382 353.893C646.299 353.692 646.256 353.476 646.256 353.258C646.256 353.04 646.299 352.824 646.382 352.623C646.466 352.422 646.588 352.239 646.742 352.085C646.897 351.931 647.08 351.809 647.281 351.726C647.483 351.643 647.699 351.601 647.916 351.602H698.338C698.556 351.601 698.772 351.643 698.973 351.726C699.175 351.809 699.358 351.931 699.512 352.085C699.667 352.239 699.789 352.422 699.872 352.623C699.956 352.824 699.999 353.04 699.999 353.258C699.999 353.476 699.956 353.692 699.873 353.893C699.789 354.095 699.667 354.278 699.513 354.432C699.358 354.586 699.175 354.709 698.974 354.792C698.772 354.875 698.556 354.918 698.338 354.918Z" fill="#DA927E"/>
<path d="M696.173 305.031H649.6V351.605H696.173V305.031Z" fill="#995042"/>
<path d="M688.247 264.109H657.534C656.634 264.109 655.904 264.839 655.904 265.739V271.654C655.904 272.554 656.634 273.283 657.534 273.283H688.247C689.146 273.283 689.876 272.554 689.876 271.654V265.739C689.876 264.839 689.146 264.109 688.247 264.109Z" fill="#F26522"/>
<mask id="mask9_182_6484" style="mask-type:luminance" maskUnits="userSpaceOnUse" x="655" y="264" width="35" height="10">
<path d="M688.247 264.109H657.534C656.634 264.109 655.904 264.839 655.904 265.739V271.654C655.904 272.554 656.634 273.283 657.534 273.283H688.247C689.146 273.283 689.876 272.554 689.876 271.654V265.739C689.876 264.839 689.146 264.109 688.247 264.109Z" fill="white"/>
</mask>
<g mask="url(#mask9_182_6484)">
<path d="M691.193 267.389H656.57C655.817 267.389 655.094 267.09 654.562 266.558C654.03 266.025 653.73 265.303 653.73 264.55C653.73 263.797 654.03 263.075 654.562 262.543C655.094 262.01 655.817 261.711 656.57 261.711H691.193C691.946 261.711 692.668 262.01 693.201 262.543C693.733 263.075 694.032 263.797 694.032 264.55C694.032 265.303 693.733 266.025 693.201 266.558C692.668 267.09 691.946 267.389 691.193 267.389Z" fill="#F7941D"/>
</g>
<path d="M654.322 305.031V309.375H683.897V348.029H654.322V351.605H696.173V305.031H654.322Z" fill="#754436"/>
<path d="M658.761 305.031H656.748V351.605H658.761V305.031Z" fill="#DA927E"/>
<path d="M668.836 305.031H666.822V351.605H668.836V305.031Z" fill="#DA927E"/>
<path d="M679.193 305.031H677.18V351.605H679.193V305.031Z" fill="#DA927E"/>
<path d="M689.267 305.031H687.254V351.605H689.267V305.031Z" fill="#DA927E"/>
</svg>
