<svg width="20" height="10" viewBox="0 0 20 10" fill="none" xmlns="http://www.w3.org/2000/svg">
<path d="M19.7709 4.32199L19.7702 4.32125L15.688 0.258747C15.3821 -0.0455885 14.8875 -0.0444559 14.5831 0.261403C14.2787 0.567224 14.2799 1.06187 14.5857 1.36625L17.3265 4.09375H0.78125C0.349766 4.09375 0 4.44351 0 4.875C0 5.30648 0.349766 5.65625 0.78125 5.65625H17.3264L14.5857 8.38375C14.2799 8.68812 14.2788 9.18277 14.5831 9.48859C14.8875 9.79449 15.3822 9.79554 15.688 9.49125L19.7702 5.42875L19.7709 5.42801C20.0769 5.12261 20.0759 4.62636 19.7709 4.32199Z" fill="white"/>
</svg>
