<svg width="30" height="31" viewBox="0 0 30 31" fill="none" xmlns="http://www.w3.org/2000/svg">
<path d="M19.8857 15.9901L29.9995 22.3838V9.32635L19.8857 15.9901Z" fill="#404040"/>
<path d="M0 9.32635V22.3838L10.1138 15.9901L0 9.32635Z" fill="#404040"/>
<path d="M28.1254 5.52385H1.87539C0.939766 5.52385 0.197266 6.22135 0.0566406 7.11947L15.0004 16.9651L29.9441 7.11947C29.8035 6.22135 29.061 5.52385 28.1254 5.52385Z" fill="#404040"/>
<path d="M18.1693 17.1224L15.5162 18.8699C15.3587 18.973 15.1805 19.0237 15.0005 19.0237C14.8205 19.0237 14.6424 18.973 14.4849 18.8699L11.8318 17.1205L0.0605469 24.5662C0.204922 25.4568 0.943672 26.1487 1.87555 26.1487H28.1255C29.0574 26.1487 29.7962 25.4568 29.9405 24.5662L18.1693 17.1224Z" fill="#404040"/>
</svg>
