<svg width="24" height="25" viewBox="0 0 24 25" fill="none" xmlns="http://www.w3.org/2000/svg">
<path fill-rule="evenodd" clip-rule="evenodd" d="M19.9974 8.90072L12.4974 3.07401C12.1641 2.82429 11.7474 2.82429 11.4974 3.07401L3.9974 8.90072C3.7474 9.0672 3.66406 9.31691 3.66406 9.56663V18.7229C3.66406 20.1379 4.7474 21.2201 6.16406 21.2201H17.8307C19.2474 21.2201 20.3307 20.1379 20.3307 18.7229V9.56663C20.3307 9.31691 20.2474 9.0672 19.9974 8.90072ZM13.6615 12.8965V19.5556H10.3281V12.8965H13.6615ZM17.8281 19.5555C18.3281 19.5555 18.6615 19.2226 18.6615 18.7231V9.98307L11.9948 4.82227L5.32812 9.98307V18.7231C5.32812 19.2226 5.66146 19.5555 6.16146 19.5555H8.66146V12.064C8.66146 11.5646 8.99479 11.2316 9.49479 11.2316H14.4948C14.9948 11.2316 15.3281 11.5646 15.3281 12.064V19.5555H17.8281Z" fill="#999999"/>
</svg>
