<svg width="30" height="31" viewBox="0 0 30 31" fill="none" xmlns="http://www.w3.org/2000/svg">
<rect x="0.5" y="1.33635" width="29" height="29" rx="14.5" stroke="#404040"/>
<g clip-path="url(#clip0_112_394)">
<path d="M15.0032 11.7934C12.7673 11.7934 10.9638 13.5969 10.9638 15.8328C10.9638 18.0688 12.7673 19.8723 15.0032 19.8723C17.2392 19.8723 19.0427 18.0688 19.0427 15.8328C19.0427 13.5969 17.2392 11.7934 15.0032 11.7934ZM15.0032 18.459C13.5583 18.459 12.3771 17.2813 12.3771 15.8328C12.3771 14.3844 13.5548 13.2067 15.0032 13.2067C16.4517 13.2067 17.6294 14.3844 17.6294 15.8328C17.6294 17.2813 16.4481 18.459 15.0032 18.459ZM20.1501 11.6281C20.1501 12.152 19.7282 12.5703 19.2079 12.5703C18.6841 12.5703 18.2657 12.1485 18.2657 11.6281C18.2657 11.1078 18.6876 10.686 19.2079 10.686C19.7282 10.686 20.1501 11.1078 20.1501 11.6281ZM22.8255 12.5844C22.7657 11.3223 22.4774 10.2043 21.5528 9.28323C20.6317 8.36213 19.5138 8.07385 18.2517 8.01057C16.9509 7.93674 13.0521 7.93674 11.7513 8.01057C10.4927 8.07034 9.37471 8.35862 8.4501 9.27971C7.52549 10.2008 7.24072 11.3188 7.17744 12.5809C7.10361 13.8817 7.10361 17.7805 7.17744 19.0813C7.23721 20.3434 7.52549 21.4614 8.4501 22.3824C9.37471 23.3035 10.4892 23.5918 11.7513 23.6551C13.0521 23.7289 16.9509 23.7289 18.2517 23.6551C19.5138 23.5953 20.6317 23.3071 21.5528 22.3824C22.4739 21.4614 22.7622 20.3434 22.8255 19.0813C22.8993 17.7805 22.8993 13.8852 22.8255 12.5844ZM21.145 20.477C20.8708 21.166 20.3399 21.6969 19.6474 21.9746C18.6103 22.386 16.1493 22.291 15.0032 22.291C13.8571 22.291 11.3927 22.3824 10.3591 21.9746C9.67002 21.7004 9.13916 21.1696 8.86143 20.477C8.4501 19.4399 8.54502 16.9789 8.54502 15.8328C8.54502 14.6867 8.45361 12.2223 8.86143 11.1887C9.13564 10.4996 9.6665 9.96877 10.3591 9.69104C11.3962 9.27971 13.8571 9.37463 15.0032 9.37463C16.1493 9.37463 18.6138 9.28323 19.6474 9.69104C20.3364 9.96526 20.8673 10.4961 21.145 11.1887C21.5563 12.2258 21.4614 14.6867 21.4614 15.8328C21.4614 16.9789 21.5563 19.4434 21.145 20.477Z" fill="#404040"/>
</g>
<defs>
<clipPath id="clip0_112_394">
<rect width="18" height="18" fill="white" transform="translate(6 6.83635)"/>
</clipPath>
</defs>
</svg>
