<svg width="20" height="21" viewBox="0 0 20 21" fill="none" xmlns="http://www.w3.org/2000/svg">
<g clip-path="url(#clip0_181_5041)">
<path d="M8.80758 0.887695C3.95121 0.887695 0 4.83891 0 9.69527C0 14.5519 3.95121 18.5028 8.80758 18.5028C13.6642 18.5028 17.6152 14.5519 17.6152 9.69527C17.6152 4.83891 13.6642 0.887695 8.80758 0.887695ZM8.80758 16.8769C4.84769 16.8769 1.62602 13.6552 1.62602 9.69531C1.62602 5.73543 4.84769 2.51371 8.80758 2.51371C12.7675 2.51371 15.9891 5.73539 15.9891 9.69527C15.9891 13.6552 12.7675 16.8769 8.80758 16.8769Z" fill="#8D8D8D"/>
<path d="M19.762 19.5001L15.1007 14.8388C14.7831 14.5212 14.2687 14.5212 13.9511 14.8388C13.6335 15.1561 13.6335 15.6711 13.9511 15.9884L18.6124 20.6497C18.7712 20.8085 18.979 20.8879 19.1872 20.8879C19.395 20.8879 19.6032 20.8085 19.762 20.6497C20.0796 20.3323 20.0796 19.8174 19.762 19.5001Z" fill="#8D8D8D"/>
</g>
<defs>
<clipPath id="clip0_181_5041">
<rect width="20" height="20" fill="white" transform="translate(0 0.887695)"/>
</clipPath>
</defs>
</svg>
