<svg width="170" height="136" viewBox="0 0 170 136" fill="none" xmlns="http://www.w3.org/2000/svg">
<path d="M169.06 18.2116C168.327 13.3115 165.863 8.83612 162.114 5.59685C158.365 2.35758 153.579 0.568764 148.624 0.554688H21.3756C16.421 0.568764 11.6354 2.35758 7.88632 5.59685C4.13726 8.83612 1.67289 13.3115 0.939941 18.2116L84.9999 72.6053L169.06 18.2116Z" fill="white"/>
<path d="M88.0544 84.0281C87.1443 84.6166 86.0837 84.9296 85 84.9296C83.9163 84.9296 82.8557 84.6166 81.9456 84.0281L0.625 31.4119V114.803C0.630956 120.304 2.81909 125.579 6.70929 129.469C10.5995 133.359 15.874 135.547 21.3756 135.553H148.624C154.126 135.547 159.4 133.359 163.291 129.469C167.181 125.579 169.369 120.304 169.375 114.803V31.4062L88.0544 84.0281Z" fill="white"/>
</svg>
