<svg width="46" height="48" viewBox="0 0 46 48" fill="none" xmlns="http://www.w3.org/2000/svg">
<path d="M13.3806 22.215C13.3806 22.6862 13.7611 23.069 14.2285 23.069C14.6989 23.069 15.0817 22.6862 15.0817 22.215C15.0817 21.7478 14.6989 21.368 14.2285 21.368C13.7611 21.368 13.3806 21.7478 13.3806 22.215ZM38.7438 12.2937L38.7485 11.1075C38.6684 11.1847 38.3757 11.4246 38.1351 11.5646L26.1799 18.512C24.6671 19.3918 22.1986 19.3918 20.6781 18.5143L14.531 14.9649V16.761L20.9696 20.478C22.3237 21.261 24.5218 21.2603 25.8697 20.4772L37.8241 13.5299C38.4155 13.186 38.7422 12.7469 38.7438 12.2937ZM10.834 17.5103C10.8267 18.9339 11.581 20.2894 13.0028 21.4531C13.2084 21.1241 13.5388 20.8815 13.9307 20.7992V17.1081L10.8411 15.3244L10.834 17.5103Z" fill="white"/>
<path d="M35.1348 17.5797L35.1415 15.7831L26.1715 20.996C24.6584 21.8751 22.1918 21.8768 20.6698 20.9983L14.5312 17.4545V20.8003C15.1879 20.9393 15.6822 21.5204 15.6822 22.215C15.6822 22.4852 15.6033 22.7354 15.4743 22.9524C23.2906 26.4836 35.114 23.3617 35.1348 17.5797ZM16.8871 30.5243C16.8879 30.5243 16.8879 30.5235 16.8879 30.5235C17.4584 29.7491 17.0731 28.5746 16.4214 27.862C15.9135 27.315 15.3102 27.0525 14.8227 27.1658C13.5843 27.4563 13.395 29.2991 10.7478 27.816C10.486 27.669 10.2348 27.5287 9.98242 27.4279C10.4533 29.3449 11.2529 30.9372 12.3879 32.4125C13.7909 31.0476 15.9738 31.7703 16.8871 30.5243Z" fill="white"/>
<path d="M37.8171 8.55478L25.0305 1.1722C23.6778 0.390564 21.4804 0.389275 20.1336 1.17138L8.17902 8.11873C6.93039 8.84388 6.97129 9.90713 8.19227 10.6113L14.2308 14.0979L20.5643 10.4175C19.9094 9.66256 20.2268 8.80416 21.089 8.30306C22.158 7.68267 23.8348 7.68338 24.9084 8.30224C26.0875 8.98392 26.0908 10.1813 24.9224 10.8613C23.8759 11.4696 22.1743 11.5076 21.0522 10.828L14.8296 14.4437L20.978 17.9938C22.2924 18.7522 24.5036 18.7906 25.8781 17.9929L37.8333 11.0456C39.035 10.3481 39.0868 9.28756 37.8171 8.55478ZM1.60984 35.5744L20.525 46.4927C21.9306 47.3069 24.2092 47.3078 25.6008 46.4935L44.4034 35.5673C45.0106 35.2133 45.3621 34.7422 45.3685 34.2733V32.1206C45.2339 32.2576 44.8681 32.532 44.716 32.6199L25.9118 43.55C24.3456 44.4569 21.8354 44.4717 20.235 43.5508L1.31066 32.6208C1.1473 32.5263 0.787188 32.2643 0.635547 32.1144L0.630859 34.264C0.630859 34.7352 0.98793 35.2134 1.60984 35.5744Z" fill="white"/>
<path d="M17.8984 36.6123C21.8731 38.2511 26.266 37.8751 29.817 35.7823C32.9441 33.937 35.0539 30.9547 35.9279 27.6427C35.3688 27.2561 34.7863 26.8133 34.1491 26.5501C32.5973 25.9257 30.6235 26.5821 29.7569 28.016C29.292 28.7883 28.7403 30.0163 26.8157 29.6507C25.1194 29.3332 24.1345 27.7473 23.2229 27.7308C22.6977 27.73 22.2063 28.2184 22.0352 28.7114C21.6023 29.9768 22.3675 30.988 22.1852 32.1816C21.839 34.4336 18.5471 34.8669 17.8984 36.6123Z" fill="white"/>
<path d="M36.0866 27.0214C36.6329 24.4712 36.436 21.7608 35.4107 19.2354C33.8539 23.3226 27.6334 25.0734 23.0147 25.0734C20.208 25.0734 17.3938 24.5226 15.043 23.4184C14.8028 23.5821 14.5187 23.6696 14.228 23.6693C13.4046 23.6693 12.6951 22.9623 12.7961 22.0575C11.7259 21.2212 10.97 20.2551 10.5704 19.2314C9.61586 21.5907 9.34856 24.2014 9.83629 26.7559C10.2748 26.8638 10.6075 27.0504 11.0409 27.2926C13.355 28.5935 13.1275 26.9462 14.6868 26.5808C15.3939 26.4221 16.2066 26.7488 16.8622 27.456C17.6966 28.3678 18.1389 29.836 17.3709 30.8792C16.2334 32.4282 14.0436 31.5954 12.7736 32.8854C14.0532 34.3988 15.6167 35.5808 17.3471 36.3827C18.0973 34.4162 21.3031 33.9636 21.5911 32.0903C21.7513 31.0522 20.9697 29.9729 21.4676 28.5162C21.752 27.6964 22.4678 27.1308 23.2117 27.1308H23.232C24.522 27.1528 25.27 28.7497 26.9264 29.0615C28.5549 29.3621 28.9728 28.1583 29.2417 27.7074C30.256 26.0313 32.5602 25.2656 34.3755 25.9946C35.0233 26.2618 35.5514 26.6523 36.0866 27.0214Z" fill="white"/>
<path d="M1.6134 32.0996L20.5316 43.0258C21.9342 43.8385 24.212 43.8392 25.6082 43.0267L44.41 32.1013C45.6777 31.3625 45.7027 30.2521 44.3983 29.5001L36.9387 25.1932C36.5853 30.1192 33.9605 34.035 30.1255 36.3006C26.2034 38.6144 21.5307 38.816 17.5181 37.1133C15.3826 36.2057 13.5179 34.7954 12.0761 33.0009C10.3245 30.815 9.22848 28.1141 9.03031 25.1886L1.59535 29.5072C0.300196 30.2618 0.338867 31.3757 1.6134 32.0996ZM7.24871 11.842C7.24719 12.303 7.5793 12.7485 8.18246 13.0962L13.9304 16.4144V14.6184L7.89184 11.1317C7.63367 10.9822 7.33379 10.734 7.2527 10.6551L7.24871 11.842ZM21.3997 10.3418C22.2764 10.8482 23.7516 10.8473 24.6206 10.3426C25.3943 9.89378 25.3779 9.26589 24.608 8.8228C23.7301 8.31644 22.2563 8.3189 21.3903 8.82198C20.6164 9.27257 20.6316 9.89952 21.3997 10.3418Z" fill="white"/>
</svg>
