<svg width="48" height="44" viewBox="0 0 48 44" fill="none" xmlns="http://www.w3.org/2000/svg">
<path fill-rule="evenodd" clip-rule="evenodd" d="M40.1738 8.20435V40.2395C40.1738 42.2356 41.8096 43.8713 43.8057 43.8713C45.8018 43.8713 47.4375 42.2356 47.4375 40.2395V9.57837C47.4375 8.82251 46.8193 8.20435 46.0635 8.20435H40.1738ZM10.3604 6.26587C10.0908 6.26587 9.87207 6.04712 9.87207 5.77759C9.87207 5.50806 10.0908 5.28931 10.3604 5.28931H29.3984C29.668 5.28931 29.8867 5.50806 29.8867 5.77759C29.8867 6.04712 29.668 6.26587 29.3984 6.26587H10.3604ZM15.5674 11.9026H6.3877C5.8877 11.9026 5.47949 12.3118 5.47949 12.8108V21.9905C5.47949 22.4905 5.88867 22.8987 6.3877 22.8987H15.5674C16.0674 22.8987 16.4756 22.4895 16.4756 21.9905V12.8108C16.4756 12.3108 16.0664 11.9026 15.5674 11.9026ZM6.3877 10.926H15.5674C16.6064 10.926 17.4521 11.7727 17.4521 12.8108V21.9905C17.4521 23.0295 16.6055 23.8752 15.5674 23.8752H6.3877C5.34863 23.8752 4.50293 23.0286 4.50293 21.9905V12.8108C4.50293 11.7717 5.34961 10.926 6.3877 10.926ZM21.4219 15.8674C21.1523 15.8674 20.9336 15.6487 20.9336 15.3791C20.9336 15.1096 21.1523 14.8909 21.4219 14.8909H34.7686C35.0381 14.8909 35.2568 15.1096 35.2568 15.3791C35.2568 15.6487 35.0381 15.8674 34.7686 15.8674H21.4219ZM21.4219 23.4866C21.1523 23.4866 20.9336 23.2678 20.9336 22.9983C20.9336 22.7288 21.1523 22.51 21.4219 22.51H34.7686C35.0381 22.51 35.2568 22.7288 35.2568 22.9983C35.2568 23.2678 35.0381 23.4866 34.7686 23.4866H21.4219ZM21.4219 19.677C21.1523 19.677 20.9336 19.4583 20.9336 19.1887C20.9336 18.9192 21.1523 18.7004 21.4219 18.7004H34.7686C35.0381 18.7004 35.2568 18.9192 35.2568 19.1887C35.2568 19.4583 35.0381 19.677 34.7686 19.677H21.4219ZM4.99121 34.9172C4.72168 34.9172 4.50293 34.6985 4.50293 34.429C4.50293 34.1594 4.72168 33.9407 4.99121 33.9407H34.7686C35.0381 33.9407 35.2568 34.1594 35.2568 34.429C35.2568 34.6985 35.0381 34.9172 34.7686 34.9172H4.99121ZM4.99121 27.2981C4.72168 27.2981 4.50293 27.0793 4.50293 26.8098C4.50293 26.5403 4.72168 26.3215 4.99121 26.3215H34.7686C35.0381 26.3215 35.2568 26.5403 35.2568 26.8098C35.2568 27.0793 35.0381 27.2981 34.7686 27.2981H4.99121ZM4.99121 31.1077C4.72168 31.1077 4.50293 30.8889 4.50293 30.6194C4.50293 30.3499 4.72168 30.1311 4.99121 30.1311H34.7686C35.0381 30.1311 35.2568 30.3499 35.2568 30.6194C35.2568 30.8889 35.0381 31.1077 34.7686 31.1077H4.99121ZM21.4219 12.0588C21.1523 12.0588 20.9336 11.8401 20.9336 11.5706C20.9336 11.301 21.1523 11.0823 21.4219 11.0823H34.7686C35.0381 11.0823 35.2568 11.301 35.2568 11.5706C35.2568 11.8401 35.0381 12.0588 34.7686 12.0588H21.4219ZM4.99121 38.7268C4.72168 38.7268 4.50293 38.5081 4.50293 38.2385C4.50293 37.969 4.72168 37.7502 4.99121 37.7502H34.7686C35.0381 37.7502 35.2568 37.969 35.2568 38.2385C35.2568 38.5081 35.0381 38.7268 34.7686 38.7268H4.99121ZM39.1973 40.2385C39.1973 41.6633 39.8574 42.9963 40.9766 43.8704H4.19434C2.19824 43.8704 0.5625 42.2346 0.5625 40.2385V1.51978C0.5625 0.763916 1.18066 0.145752 1.93652 0.145752H37.8232C38.5791 0.145752 39.1973 0.763916 39.1973 1.51978V40.2385Z" fill="url(#paint0_linear_1058_3816)"/>
<defs>
<linearGradient id="paint0_linear_1058_3816" x1="2.08496" y1="43.259" x2="41.8857" y2="3.45923" gradientUnits="userSpaceOnUse">
<stop stop-color="#193143"/>
<stop offset="1" stop-color="#00386B"/>
</linearGradient>
</defs>
</svg>
