<svg width="21" height="20" viewBox="0 0 21 20" fill="none" xmlns="http://www.w3.org/2000/svg">
<path d="M6.36916 1.33087C6.55836 1.33099 6.74409 1.38068 6.90713 1.4748C7.07017 1.56892 7.2046 1.70405 7.29649 1.8662L8.59433 4.15834C8.67814 4.30625 8.72392 4.47196 8.7277 4.64112C8.73147 4.81028 8.69313 4.97779 8.616 5.12915L7.36583 7.58168C7.36583 7.58168 7.72766 9.40859 9.24433 10.8956C10.761 12.3826 12.6178 12.731 12.6178 12.731L15.1192 11.5053C15.2736 11.4297 15.4445 11.3921 15.617 11.3958C15.7895 11.3995 15.9586 11.4444 16.1094 11.5265L18.4537 12.8054C18.7907 12.9881 18.9997 13.3365 18.9997 13.7146V16.3541C18.9997 17.6977 17.7268 18.6696 16.4279 18.2383C13.7597 17.3567 9.61808 15.6753 6.99316 13.1017C4.36825 10.5292 2.65441 6.46854 1.75416 3.8535C1.31649 2.57997 2.30666 1.33193 3.67708 1.33193L6.36916 1.33087Z" stroke="#404040" stroke-width="2.125" stroke-linejoin="round"/>
</svg>
