<svg width="39" height="49" viewBox="0 0 39 49" fill="none" xmlns="http://www.w3.org/2000/svg">
<path d="M2.40309 43.6609H4.80319V46.0608C4.80319 47.3866 5.87766 48.4609 7.20337 48.4609H36.0034C37.3286 48.4609 38.4031 47.3866 38.4031 46.0608V7.66103C38.4031 6.33541 37.3286 5.26084 36.0033 5.26084H33.6032V2.86112C33.6032 1.53531 32.5287 0.460938 31.2034 0.460938H8.80331C8.78644 0.460938 8.77116 0.46975 8.75428 0.4705C8.68322 0.475188 8.61291 0.489156 8.5455 0.512219C8.52066 0.521031 8.49675 0.527219 8.47266 0.538562C8.38509 0.576964 8.30538 0.631219 8.23753 0.698594L0.237656 8.69847C0.170773 8.76643 0.116577 8.84581 0.077625 8.93284C0.0662812 8.95778 0.0600937 8.98263 0.0512812 9.00831C0.0281544 9.07455 0.014335 9.14368 0.0102187 9.21372C0.0102187 9.23134 0 9.24672 0 9.26434V41.2608C4.53956e-06 41.5763 0.0622079 41.8886 0.183051 42.18C0.303894 42.4714 0.481005 42.7361 0.70425 42.9589C0.927363 43.1819 1.19224 43.3586 1.48373 43.4791C1.77522 43.5996 2.0876 43.6614 2.403 43.661L2.40309 43.6609ZM36.0033 6.86097C36.4449 6.86097 36.8031 7.21909 36.8031 7.66113V46.0608C36.8031 46.1659 36.7824 46.2699 36.7423 46.367C36.7021 46.4641 36.6432 46.5523 36.569 46.6266C36.4947 46.7009 36.4065 46.7599 36.3095 46.8001C36.2124 46.8403 36.1084 46.8611 36.0034 46.8611H7.20337C7.09828 46.8611 6.99422 46.8404 6.89713 46.8002C6.80004 46.76 6.71182 46.701 6.63752 46.6267C6.56321 46.5524 6.50428 46.4642 6.46407 46.3671C6.42387 46.27 6.40319 46.1659 6.40322 46.0608V43.6611H31.2034C32.5287 43.6611 33.6032 42.5867 33.6032 41.2609V6.86088L36.0033 6.86097ZM32.0032 2.86122V41.2609C32.0032 41.366 31.9825 41.47 31.9423 41.5671C31.9022 41.6642 31.8432 41.7524 31.769 41.8267C31.6947 41.901 31.6065 41.9599 31.5095 42.0001C31.4124 42.0404 31.3084 42.0611 31.2034 42.0611H2.40309C2.29804 42.0611 2.19402 42.0404 2.09697 42.0001C1.99993 41.9599 1.91175 41.901 1.83749 41.8267C1.76322 41.7524 1.70431 41.6642 1.66413 41.5671C1.62396 41.47 1.60329 41.366 1.60331 41.2609V10.0609H7.20337C8.52872 10.0609 9.60319 8.98637 9.60319 7.66113V2.06087H31.2034C31.6449 2.06087 32.0032 2.419 32.0032 2.86112V2.86122ZM8.00316 3.19216V7.66113C8.00316 8.10269 7.64503 8.46091 7.20337 8.46091H2.7345L8.00316 3.19216Z" fill="#00386B"/>
<path fill-rule="evenodd" clip-rule="evenodd" d="M5.6027 14.0625C5.49763 14.0625 5.3936 14.0832 5.29653 14.1234C5.19947 14.1637 5.11128 14.2226 5.037 14.2969C4.96272 14.3713 4.90381 14.4595 4.86363 14.5566C4.82345 14.6536 4.80279 14.7577 4.80283 14.8628C4.80283 15.3043 5.16095 15.6624 5.6027 15.6624H28.0027C28.2148 15.6624 28.4183 15.5782 28.5683 15.4281C28.7184 15.2781 28.8026 15.0746 28.8026 14.8625C28.8026 14.6503 28.7184 14.4468 28.5683 14.2968C28.4183 14.1468 28.2148 14.0625 28.0027 14.0625H5.6027ZM28.0028 30.0626H5.60261C5.39047 30.0626 5.18702 30.1469 5.03701 30.2969C4.88701 30.4469 4.80273 30.6504 4.80273 30.8625C4.80271 30.9676 4.82338 31.0716 4.86357 31.1687C4.90375 31.2657 4.96266 31.354 5.03694 31.4283C5.11122 31.5026 5.1994 31.5615 5.29646 31.6017C5.39352 31.6419 5.49755 31.6626 5.60261 31.6627H28.0026C28.1084 31.6638 28.2133 31.644 28.3114 31.6043C28.4095 31.5646 28.4987 31.5058 28.5739 31.4314C28.6491 31.357 28.7088 31.2684 28.7496 31.1708C28.7903 31.0732 28.8113 30.9684 28.8113 30.8626C28.8113 30.7568 28.7903 30.6521 28.7496 30.5545C28.7088 30.4568 28.6491 30.3683 28.5739 30.2939C28.4987 30.2195 28.4095 30.1607 28.3114 30.121C28.2133 30.0813 28.1084 30.0615 28.0026 30.0626H28.0028ZM28.0028 18.0626H24.0029C23.7907 18.0626 23.5873 18.1469 23.4372 18.2969C23.2872 18.447 23.2029 18.6505 23.2029 18.8626C23.2029 19.0748 23.2872 19.2783 23.4372 19.4283C23.5873 19.5784 23.7907 19.6627 24.0029 19.6627H28.0028C28.1086 19.6638 28.2135 19.644 28.3116 19.6043C28.4097 19.5646 28.4989 19.5058 28.5741 19.4314C28.6493 19.357 28.709 19.2684 28.7498 19.1708C28.7905 19.0732 28.8115 18.9684 28.8115 18.8626C28.8115 18.7568 28.7905 18.6521 28.7498 18.5545C28.709 18.4568 28.6493 18.3683 28.5741 18.2939C28.4989 18.2195 28.4097 18.1607 28.3116 18.121C28.2135 18.0813 28.1086 18.0615 28.0028 18.0626ZM20.803 18.8625C20.803 18.4208 20.4448 18.0626 20.0028 18.0626H5.6027C5.49766 18.0626 5.39365 18.0833 5.2966 18.1235C5.19956 18.1637 5.11138 18.2226 5.03711 18.2969C4.96283 18.3712 4.90391 18.4594 4.86371 18.5564C4.82352 18.6534 4.80283 18.7575 4.80283 18.8625C4.8028 18.9676 4.82347 19.0716 4.86366 19.1687C4.90384 19.2657 4.96276 19.3539 5.03703 19.4283C5.11131 19.5026 5.1995 19.5615 5.29655 19.6017C5.39361 19.6419 5.49764 19.6626 5.6027 19.6627H20.0028C20.1079 19.6627 20.2119 19.642 20.309 19.6018C20.4061 19.5616 20.4943 19.5026 20.5686 19.4283C20.6429 19.354 20.7019 19.2658 20.7421 19.1687C20.7823 19.0716 20.803 18.9676 20.803 18.8625ZM15.2029 34.0624H14.4027C14.2977 34.0624 14.1936 34.0831 14.0966 34.1234C13.9995 34.1636 13.9114 34.2225 13.8371 34.2968C13.7628 34.3712 13.7039 34.4594 13.6637 34.5564C13.6236 34.6535 13.6029 34.7576 13.603 34.8626C13.603 35.3042 13.9611 35.6623 14.4026 35.6623H15.2029C15.4151 35.6623 15.6185 35.578 15.7686 35.428C15.9186 35.278 16.0029 35.0745 16.0029 34.8623C16.0029 34.6502 15.9186 34.4467 15.7686 34.2967C15.6185 34.1467 15.4151 34.0624 15.2029 34.0624ZM10.403 34.0624H5.6027C5.49763 34.0624 5.3936 34.0831 5.29653 34.1233C5.19947 34.1635 5.11128 34.2225 5.037 34.2968C4.96272 34.3711 4.90381 34.4593 4.86363 34.5564C4.82345 34.6535 4.80279 34.7576 4.80283 34.8626C4.80283 35.3042 5.16095 35.6623 5.6027 35.6623H10.403C10.6151 35.6623 10.8186 35.578 10.9686 35.428C11.1187 35.278 11.203 35.0745 11.203 34.8623C11.203 34.6502 11.1187 34.4467 10.9686 34.2967C10.8186 34.1467 10.6151 34.0624 10.403 34.0624ZM5.6027 23.6624H9.60283C9.81501 23.6624 10.0185 23.5781 10.1685 23.4281C10.3186 23.2781 10.4028 23.0746 10.4028 22.8624C10.4028 22.6502 10.3186 22.4467 10.1685 22.2967C10.0185 22.1467 9.81501 22.0624 9.60283 22.0624H5.6027C5.49763 22.0624 5.3936 22.0831 5.29653 22.1233C5.19947 22.1635 5.11128 22.2225 5.037 22.2968C4.96272 22.3711 4.90381 22.4593 4.86363 22.5564C4.82345 22.6535 4.80279 22.7576 4.80283 22.8626C4.80283 23.3042 5.16095 23.6624 5.6027 23.6624ZM28.0028 22.0624H13.6029C13.4971 22.0612 13.3921 22.0811 13.294 22.1208C13.196 22.1605 13.1068 22.2192 13.0315 22.2936C12.9563 22.368 12.8966 22.4566 12.8559 22.5542C12.8151 22.6519 12.7941 22.7566 12.7941 22.8624C12.7941 22.9682 12.8151 23.0729 12.8559 23.1706C12.8966 23.2682 12.9563 23.3568 13.0315 23.4312C13.1068 23.5056 13.196 23.5643 13.294 23.604C13.3921 23.6437 13.4971 23.6636 13.6029 23.6624H28.0026C28.2148 23.6624 28.4182 23.5781 28.5683 23.4281C28.7183 23.2781 28.8026 23.0746 28.8026 22.8624C28.8026 22.6502 28.7183 22.4467 28.5683 22.2967C28.4182 22.1467 28.2148 22.0624 28.0026 22.0624H28.0028ZM5.6027 27.6625H8.0028C8.21497 27.6625 8.41846 27.5782 8.56849 27.4282C8.71852 27.2782 8.80281 27.0747 8.80281 26.8625C8.80281 26.6503 8.71852 26.4469 8.56849 26.2968C8.41846 26.1468 8.21497 26.0625 8.0028 26.0625H5.6027C5.49763 26.0625 5.3936 26.0832 5.29653 26.1234C5.19947 26.1637 5.11128 26.2226 5.037 26.2969C4.96272 26.3713 4.90381 26.4595 4.86363 26.5566C4.82345 26.6536 4.80279 26.7577 4.80283 26.8627C4.80283 27.3043 5.16095 27.6624 5.6027 27.6624V27.6625ZM12.0029 27.6625H21.6028C21.815 27.6625 22.0185 27.5782 22.1685 27.4282C22.3186 27.2782 22.4028 27.0747 22.4028 26.8625C22.4028 26.6503 22.3186 26.4469 22.1685 26.2968C22.0185 26.1468 21.815 26.0625 21.6028 26.0625H12.0029C11.8971 26.0614 11.7922 26.0812 11.6941 26.1209C11.596 26.1606 11.5068 26.2193 11.4316 26.2937C11.3564 26.3681 11.2967 26.4567 11.2559 26.5543C11.2152 26.652 11.1942 26.7567 11.1942 26.8625C11.1942 26.9683 11.2152 27.0731 11.2559 27.1707C11.2967 27.2683 11.3564 27.3569 11.4316 27.4313C11.5068 27.5057 11.596 27.5644 11.6941 27.6041C11.7922 27.6438 11.8971 27.6637 12.0029 27.6625ZM28.0028 26.0625H25.603C25.4972 26.0614 25.3922 26.0812 25.2941 26.1209C25.1961 26.1606 25.1068 26.2193 25.0316 26.2937C24.9564 26.3681 24.8967 26.4567 24.856 26.5543C24.8152 26.652 24.7942 26.7567 24.7942 26.8625C24.7942 26.9683 24.8152 27.0731 24.856 27.1707C24.8967 27.2683 24.9564 27.3569 25.0316 27.4313C25.1068 27.5057 25.1961 27.5644 25.2941 27.6041C25.3922 27.6438 25.4972 27.6637 25.603 27.6625H28.0027C28.2148 27.6625 28.4183 27.5782 28.5684 27.4282C28.7184 27.2782 28.8027 27.0747 28.8027 26.8625C28.8027 26.6503 28.7184 26.4469 28.5684 26.2968C28.4183 26.1468 28.2148 26.0625 28.0027 26.0625H28.0028Z" fill="black"/>
</svg>
