<svg width="18" height="19" viewBox="0 0 18 19" fill="none" xmlns="http://www.w3.org/2000/svg">
<path d="M13.9564 8.06958L9.52883 12.4917C9.44311 12.5776 9.39484 12.6939 9.39453 12.8152V14.5434C9.39453 14.6648 9.44277 14.7813 9.52863 14.8671C9.61449 14.953 9.73094 15.0012 9.85237 15.0012H11.5799C11.7013 15.0011 11.8177 14.9528 11.9035 14.8669L16.3298 10.4412L13.9564 8.06958ZM17.5141 6.88225C17.1997 6.56868 16.7739 6.39258 16.3298 6.39258C15.8858 6.39258 15.4599 6.56868 15.1456 6.88225L14.6041 7.4225L16.9769 9.7947L17.5141 9.2569C17.8257 8.94026 18.0003 8.51382 18.0003 8.06958C18.0003 7.62533 17.8257 7.19889 17.5141 6.88225Z" fill="white"/>
<path d="M8.87592 11.8449L14.3455 6.38748V2.3341C14.3454 1.72703 14.1041 1.14486 13.6749 0.715587C13.2456 0.286317 12.6634 0.0450837 12.0564 0.0449219H2.28918C1.6821 0.0450837 1.09993 0.286317 0.670665 0.715587C0.241395 1.14486 0.000161823 1.72703 0 2.3341V15.764C0.000161823 16.3711 0.241395 16.9532 0.670665 17.3825C1.09993 17.8118 1.6821 18.053 2.28918 18.0532H12.0564C12.6634 18.053 13.2456 17.8118 13.6749 17.3825C14.1041 16.9532 14.3454 16.3711 14.3455 15.764V13.719L12.5508 15.5137C12.4243 15.6425 12.2732 15.7445 12.1064 15.8137C11.9397 15.8829 11.7607 15.9179 11.5802 15.9166H9.85264C9.48851 15.9161 9.13944 15.7712 8.88196 15.5138C8.62448 15.2563 8.47962 14.9072 8.47913 14.5431V12.8155C8.47823 12.4523 8.62084 12.1035 8.87592 11.8449ZM2.89963 3.70761H10.8355C10.9569 3.70761 11.0733 3.75585 11.1592 3.84171C11.2451 3.92757 11.2933 4.04402 11.2933 4.16545C11.2933 4.28688 11.2451 4.40333 11.1592 4.48919C11.0733 4.57505 10.9569 4.62329 10.8355 4.62329H2.89963C2.77821 4.62329 2.66175 4.57505 2.57589 4.48919C2.49003 4.40333 2.44179 4.28688 2.44179 4.16545C2.44179 4.04402 2.49003 3.92757 2.57589 3.84171C2.66175 3.75585 2.77821 3.70761 2.89963 3.70761ZM2.89963 6.75986H10.8355C10.9569 6.75986 11.0733 6.80809 11.1592 6.89395C11.2451 6.97982 11.2933 7.09627 11.2933 7.21769C11.2933 7.33912 11.2451 7.45557 11.1592 7.54143C11.0733 7.62729 10.9569 7.67553 10.8355 7.67553H2.89963C2.77821 7.67553 2.66175 7.62729 2.57589 7.54143C2.49003 7.45557 2.44179 7.33912 2.44179 7.21769C2.44179 7.09627 2.49003 6.97982 2.57589 6.89395C2.66175 6.80809 2.77821 6.75986 2.89963 6.75986ZM7.17277 14.3905C7.05679 14.3905 7.00795 14.4332 6.81871 14.6652C6.71226 14.8558 6.55684 15.0147 6.36851 15.1252C6.18018 15.2357 5.96575 15.294 5.74737 15.294C5.52899 15.294 5.31457 15.2357 5.12624 15.1252C4.93791 15.0147 4.78249 14.8558 4.67604 14.6652C4.4868 14.4332 4.43796 14.3905 4.32198 14.3905C4.20599 14.3905 4.15716 14.4332 3.96792 14.6652C3.8558 14.8502 3.69951 15.0045 3.51306 15.1143C3.32661 15.224 3.11583 15.2857 2.89963 15.2939C2.77821 15.2939 2.66175 15.2457 2.57589 15.1598C2.49003 15.074 2.44179 14.9575 2.44179 14.8361C2.44179 14.7147 2.49003 14.5982 2.57589 14.5124C2.66175 14.4265 2.77821 14.3783 2.89963 14.3783C3.01562 14.3783 3.06445 14.3355 3.25369 14.1036C3.3658 13.9185 3.5221 13.7642 3.70855 13.6545C3.895 13.5447 4.10578 13.483 4.32198 13.4748C4.5388 13.4839 4.75009 13.5459 4.93739 13.6555C5.12468 13.7651 5.28227 13.919 5.39637 14.1036C5.5795 14.3355 5.63444 14.3783 5.75043 14.3783C5.86031 14.3783 5.91525 14.3355 6.09838 14.1036C6.21248 13.919 6.37007 13.7651 6.55736 13.6555C6.74466 13.5459 6.95595 13.4839 7.17277 13.4748C7.2942 13.4748 7.41065 13.523 7.49651 13.6089C7.58237 13.6947 7.63061 13.8112 7.63061 13.9326C7.63061 14.0541 7.58237 14.1705 7.49651 14.2564C7.41065 14.3422 7.2942 14.3905 7.17277 14.3905ZM7.78322 10.7278H2.89963C2.77821 10.7278 2.66175 10.6795 2.57589 10.5937C2.49003 10.5078 2.44179 10.3914 2.44179 10.2699C2.44179 10.1485 2.49003 10.0321 2.57589 9.9462C2.66175 9.86034 2.77821 9.8121 2.89963 9.8121H7.78322C7.90465 9.8121 8.0211 9.86034 8.10696 9.9462C8.19282 10.0321 8.24106 10.1485 8.24106 10.2699C8.24106 10.3914 8.19282 10.5078 8.10696 10.5937C8.0211 10.6795 7.90465 10.7278 7.78322 10.7278Z" fill="white"/>
</svg>
