<svg width="30" height="31" viewBox="0 0 30 31" fill="none" xmlns="http://www.w3.org/2000/svg">
<g clip-path="url(#clip0_353_1373)">
<path d="M13.2114 0.0449219C5.92682 0.0449219 0 5.97174 0 13.2563C0 20.5412 5.92682 26.4677 13.2114 26.4677C20.4963 26.4677 26.4227 20.5412 26.4227 13.2563C26.4227 5.97174 20.4963 0.0449219 13.2114 0.0449219ZM13.2114 24.0287C7.27154 24.0287 2.43902 19.1962 2.43902 13.2563C2.43902 7.31652 7.27154 2.48394 13.2114 2.48394C19.1512 2.48394 23.9837 7.31646 23.9837 13.2563C23.9837 19.1961 19.1512 24.0287 13.2114 24.0287Z" fill="white"/>
<path d="M29.643 27.9625L22.6511 20.9706C22.1746 20.4942 21.4031 20.4942 20.9267 20.9706C20.4502 21.4466 20.4502 22.219 20.9267 22.695L27.9186 29.6869C28.1567 29.9251 28.4686 30.0442 28.7808 30.0442C29.0925 30.0442 29.4047 29.9251 29.643 29.6869C30.1194 29.2109 30.1194 28.4385 29.643 27.9625Z" fill="white"/>
</g>
<defs>
<clipPath id="clip0_353_1373">
<rect width="30" height="30" fill="white" transform="translate(0 0.0449219)"/>
</clipPath>
</defs>
</svg>
