<svg width="30" height="31" viewBox="0 0 30 31" fill="none" xmlns="http://www.w3.org/2000/svg">
<rect x="0.5" y="1.33635" width="29" height="29" rx="14.5" stroke="#404040"/>
<path d="M23.1769 11.7139C22.9806 10.9749 22.4023 10.3928 21.668 10.1953C20.337 9.83635 15.0001 9.83635 15.0001 9.83635C15.0001 9.83635 9.66327 9.83635 8.3323 10.1953C7.59802 10.3928 7.0197 10.9749 6.82342 11.7139C6.4668 13.0535 6.4668 15.8485 6.4668 15.8485C6.4668 15.8485 6.4668 18.6434 6.82342 19.983C7.0197 20.7221 7.59802 21.2799 8.3323 21.4774C9.66327 21.8363 15.0001 21.8363 15.0001 21.8363C15.0001 21.8363 20.337 21.8363 21.668 21.4774C22.4023 21.2799 22.9806 20.7221 23.1769 19.983C23.5335 18.6434 23.5335 15.8485 23.5335 15.8485C23.5335 15.8485 23.5335 13.0535 23.1769 11.7139ZM13.2547 18.3861V13.3109L17.7153 15.8485L13.2547 18.3861Z" fill="#404040"/>
</svg>
